<svg xmlns="http://www.w3.org/2000/svg" viewBox="0 0 24 24" fill="currentColor">
  <path d="M9.585 11.692h4.328s2.432.039 2.432-2.35V5.391S16.714 3 11.936 3C7.362 3 7.647 3 7.647 3l-.005 2.299h4.363v.62H5.938s-2.906-.332-2.906 4.27c0 4.603 2.54 4.446 2.54 4.446h1.509v-2.026s-.083-2.539 2.504-2.539zm-.468-5.286a.827.827 0 0 1-.827-.827.827.827 0 0 1 .827-.827.827.827 0 0 1 .827.827.827.827 0 0 1-.827.827zM12 21c4.578 0 4.293 0 4.293 0l.005-2.299h-4.363v-.62h6.067s2.906.332 2.906-4.27c0-4.603-2.54-4.446-2.54-4.446h-1.509v2.026s.083 2.539-2.504 2.539H9.727s-2.432-.04-2.432 2.35v3.951S7.926 21 12 21zm.468-5.286a.827.827 0 0 1 .827.827.827.827 0 0 1-.827.827.827.827 0 0 1-.827-.827.827.827 0 0 1 .827-.827z"/>
</svg>
