<svg xmlns="http://www.w3.org/2000/svg" viewBox="0 0 24 24" fill="currentColor">
  <path d="M21.81 10.25c-.06-.04-.56-.43-1.64-.43-.61 0-1.24.1-1.83.27-.11-.49-.32-1.01-.7-1.44-.1-.11-.31-.29-.42-.29s-.21.07-.26.11c-.47.42-.77 1.15-.73 1.89.03.5.18.98.47 1.38-.29.15-.75.36-1.42.36H3.6c-.34 0-.57.2-.61.49-.21 1.42.08 3.18 1.1 4.51.85 1.11 2.14 1.7 3.84 1.7.46 0 .92-.03 1.37-.1 1.33-.2 2.59-.72 3.68-1.5.94-.68 1.72-1.55 2.32-2.54 1.01.02 2.16-.17 2.87-1.03.08-.1.31-.38.4-.98.01-.07.02-.27-.07-.37zm-7.85-.29h-1.6c-.09 0-.17-.08-.17-.17V8.12c0-.09.08-.17.17-.17h1.6c.09 0 .17.08.17.17v1.67c0 .09-.08.17-.17.17zm0-2.58h-1.6c-.09 0-.17-.08-.17-.17V5.54c0-.09.08-.17.17-.17h1.6c.09 0 .17.08.17.17v1.67c0 .09-.08.17-.17.17zm-2.26 2.58H10.1c-.09 0-.17-.08-.17-.17V8.12c0-.09.08-.17.17-.17h1.6c.09 0 .17.08.17.17v1.67c0 .09-.08.17-.17.17zm0-2.58H10.1c-.09 0-.17-.08-.17-.17V5.54c0-.09.08-.17.17-.17h1.6c.09 0 .17.08.17.17v1.67c0 .09-.08.17-.17.17zM9.44 9.96H7.84c-.09 0-.17-.08-.17-.17V8.12c0-.09.08-.17.17-.17h1.6c.09 0 .17.08.17.17v1.67c0 .09-.08.17-.17.17zm-2.26 0H5.58c-.09 0-.17-.08-.17-.17V8.12c0-.09.08-.17.17-.17h1.6c.09 0 .17.08.17.17v1.67c0 .09-.08.17-.17.17zm-2.27 0H3.31c-.09 0-.17-.08-.17-.17V8.12c0-.09.08-.17.17-.17h1.6c.09 0 .17.08.17.17v1.67c0 .09-.08.17-.17.17zm6.79 2.58h-1.6c-.09 0-.17-.08-.17-.17v-1.67c0-.09.08-.17.17-.17h1.6c.09 0 .17.08.17.17v1.67c0 .09-.08.17-.17.17zm2.26 0H12.36c-.09 0-.17-.08-.17-.17v-1.67c0-.09.08-.17.17-.17h1.6c.09 0 .17.08.17.17v1.67c0 .09-.08.17-.17.17zm2.27 0H14.63c-.09 0-.17-.08-.17-.17v-1.67c0-.09.08-.17.17-.17h1.6c.09 0 .17.08.17.17v1.67c0 .09-.08.17-.17.17z"/>
</svg>
