<svg xmlns="http://www.w3.org/2000/svg" viewBox="0 0 24 24" fill="currentColor">
  <path d="M3 3h18v18H3V3m4.73 15.04c.4.85 1.19 1.55 2.54 1.55 1.5 0 2.53-.8 2.53-2.55v-5.78h-1.7V17c0 .86-.35 1.08-.9 1.08-.58 0-.82-.4-1.09-.87l-1.38.83m5.98-.18c.5.98 1.51 1.73 3.09 1.73 1.6 0 2.8-.83 2.8-2.36 0-1.41-.81-2.04-2.25-2.66l-.42-.18c-.73-.31-1.04-.52-1.04-1.02 0-.41.31-.72.81-.72.5 0 .81.21 1.11.72l1.37-.88c-.52-.92-1.25-1.27-2.48-1.27-1.55 0-2.55.86-2.55 2.15 0 1.36.81 2.03 2.03 2.55l.42.18c.78.34 1.24.55 1.24 1.13 0 .48-.45.83-1.15.83-.83 0-1.31-.43-1.67-1.03l-1.31.85z"/>
</svg>
