<svg xmlns="http://www.w3.org/2000/svg" viewBox="0 0 24 24" fill="currentColor">
  <path d="M12 2C6.48 2 2 6.48 2 12s4.48 10 10 10 10-4.48 10-10S17.52 2 12 2zM7.07 18.28c.43-.9 3.05-1.78 4.93-1.78.65 0 1.06.04 1.04-.03-.7.77-1.81 1.23-3.06 1.23-1.8 0-3.26-.72-2.91-1.42M12 20c-2.31 0-4.39-.78-6.07-2.08.65.13 1.39.2 2.14.2 1.78 0 3.31-.55 4.13-1.4.83-.84 1.3-2.08 1.3-3.72 0-2-.7-3.49-2.07-4.41C10.53 8.1 9.23 7.85 7.7 7.85c-1.17 0-2.14.13-2.94.39C6.26 6.09 8.97 5 12 5c3.87 0 7 3.13 7 7s-3.13 8-7 8zm3.28-9.15c.67 0 1.14.07 1.42.14-.31.13-.61.38-.61.71 0 .46.47.6 1.05.6.43 0 .76-.09.76-.33 0-.86-1.46-.77-1.46-2.14 0-1.15.92-1.64 2.07-1.64.7 0 1.28.13 1.72.26l-.34 1.15c-.47-.13-.89-.21-1.33-.21-.47 0-.87.08-.87.38 0 .46.5.56 1.07.56.43 0 .74-.08.74-.29 0-1.09-1.89-.87-1.89-2.32 0-1.1.92-1.55 2.07-1.55.7 0 1.28.13 1.72.26l-.34 1.15c-.47-.13-.89-.21-1.33-.21-.63 0-1.01.21-1.01.71 0 .38.37.47.93.47z"/>
</svg>
